<?xml version="1.0" encoding="utf-8"?>
<!-- Generator: Adobe Illustrator 22.0.1, SVG Export Plug-In . SVG Version: 6.00 Build 0)  -->
<svg version="1.1" id="Camada_1" xmlns="http://www.w3.org/2000/svg" xmlns:xlink="http://www.w3.org/1999/xlink" x="0px" y="0px"
	 viewBox="0 0 100 100" style="enable-background:new 0 0 100 100;" xml:space="preserve">
<style type="text/css">
	.st0{fill:#FFFFFF;}
	.st1{display:none;fill:#FFFFFF;stroke:#000000;stroke-width:3;stroke-miterlimit:10;}
</style>
<g>
	<g>
		<rect x="1.5" y="1.5" class="st0" width="97" height="97"/>
		<path d="M97,3v94H3V3H97 M100,0H0v100h100V0L100,0z"/>
	</g>
	<polyline class="st1" points="1.5,23.5 50,72 98,24 	"/>
</g>
<g>
	<circle class="st0" cx="50" cy="50" r="20.5"/>
	<path d="M50,31c10.5,0,19,8.5,19,19s-8.5,19-19,19s-19-8.5-19-19S39.5,31,50,31 M50,28c-12.2,0-22,9.8-22,22s9.8,22,22,22
		s22-9.8,22-22S62.2,28,50,28L50,28z"/>
</g>
<g>
	<circle cx="74" cy="24" r="3.5"/>
	<path d="M74,22c1.1,0,2,0.9,2,2s-0.9,2-2,2s-2-0.9-2-2S72.9,22,74,22 M74,19c-2.8,0-5,2.2-5,5s2.2,5,5,5s5-2.2,5-5S76.8,19,74,19
		L74,19z"/>
</g>
</svg>
